<?xml version="1.0" encoding="UTF-8" standalone="no"?>
<svg
   xmlns:dc="http://purl.org/dc/elements/1.1/"
   xmlns:cc="http://creativecommons.org/ns#"
   xmlns:rdf="http://www.w3.org/1999/02/22-rdf-syntax-ns#"
   xmlns:svg="http://www.w3.org/2000/svg"
   xmlns="http://www.w3.org/2000/svg"
   id="svg8"
   version="1.1"
   viewBox="0 0 40 40"
   height="40"
   width="40">
  <defs
     id="defs2" />
  <metadata
     id="metadata5">
    <rdf:RDF>
      <cc:Work
         rdf:about="">
        <dc:format>image/svg+xml</dc:format>
        <dc:type
           rdf:resource="http://purl.org/dc/dcmitype/StillImage" />
        <dc:title></dc:title>
      </cc:Work>
    </rdf:RDF>
  </metadata>
  <g
     id="layer1">
    <path
       d="M 0 0 L 0 40 L 40 40 L 40 0 L 0 0 z M 10.476562 0.953125 L 29.523438 0.953125 C 36.039919 0.953125 39.046875 3.9602721 39.046875 10.476562 L 39.046875 29.523438 C 39.046875 36.039729 36.039919 39.046875 29.523438 39.046875 L 10.476562 39.046875 C 3.9625102 39.046875 0.95555391 36.039728 0.953125 29.523438 L 0.953125 10.476562 C 0.95553086 3.9602721 3.9625102 0.953125 10.476562 0.953125 z "
       style="fill:#0ca1a6;fill-opacity:1;stroke:none;stroke-width:2.05128;stroke-linecap:square;stroke-linejoin:round;stroke-miterlimit:4;stroke-dasharray:none;stroke-opacity:1"
       id="rect2063" />
    <path
       id="path2061"
       d="M 0.95238071,29.52381 V 10.47619 C 0.95478657,3.9598996 3.9621367,0.95238071 10.476189,0.95238071 H 29.52381 c 6.516482,0 9.523809,3.00751889 9.523809,9.52380929 v 19.04762 c 0,6.516291 -3.007327,9.52381 -9.523809,9.52381 H 10.476189 c -6.5140523,0 -9.52137938,-3.007519 -9.52380829,-9.52381 z"
       style="fill:#ffffff;fill-opacity:0.75;stroke:#006468;stroke-width:1.90476;stroke-linecap:butt;stroke-linejoin:round;stroke-miterlimit:4;stroke-dasharray:none;stroke-opacity:1" />
    <path
       id="path1450"
       d="M 24,9 V 20 H 18 V 15 L 8,23 18,31 V 26 H 30 V 9 Z"
       style="fill:#ffffff;fill-opacity:1;stroke:#006468;stroke-width:2;stroke-linecap:butt;stroke-linejoin:round;stroke-miterlimit:4;stroke-dasharray:none;stroke-opacity:1" />
  </g>
</svg>
